<svg width="144" height="144" viewBox="0 0 144 144" fill="none" xmlns="http://www.w3.org/2000/svg">
<rect width="144" height="144" rx="30" fill="#ED9A45"/>
<path d="M58.7233 72.1231C58.7233 76.3748 59.6866 80.0618 61.6131 83.1841C63.5396 86.24 66.0641 88.5651 69.1864 90.1595C72.3751 91.7538 75.8628 92.551 79.6494 92.551C82.971 92.551 85.8941 92.1192 88.4185 91.2556C90.9429 90.392 93.2016 89.2626 95.1946 87.8675C97.1875 86.4725 98.948 84.9777 100.476 83.3834V101.519C97.6858 103.712 94.6299 105.439 91.3083 106.701C87.9867 107.963 83.7682 108.594 78.6529 108.594C73.0727 108.594 67.9242 107.731 63.2075 106.004C58.4908 104.276 54.4384 101.785 51.0504 98.5299C47.6624 95.2747 45.0383 91.4217 43.1782 86.9707C41.3181 82.5198 40.388 77.5706 40.388 72.1231C40.388 66.6757 41.3181 61.7265 43.1782 57.2755C45.0383 52.8246 47.6624 48.9715 51.0504 45.7164C54.4384 42.4612 58.4908 39.97 63.2075 38.2427C67.9242 36.5155 73.0727 35.6519 78.6529 35.6519C83.7682 35.6519 87.9867 36.283 91.3083 37.5452C94.6299 38.8074 97.6858 40.5346 100.476 42.7269V60.8629C98.948 59.2685 97.1875 57.7738 95.1946 56.3787C93.2016 54.9172 90.9429 53.7879 88.4185 52.9907C85.8941 52.1271 82.971 51.6952 79.6494 51.6952C75.8628 51.6952 72.3751 52.4924 69.1864 54.0868C66.0641 55.6812 63.5396 58.0063 61.6131 61.0622C59.6866 64.1181 58.7233 67.805 58.7233 72.1231Z" fill="#FFFEFC"/>
</svg>
