<svg width="24" height="24" viewBox="0 0 24 24" fill="none" xmlns="http://www.w3.org/2000/svg">
<path d="M3.75 1.5C3.15326 1.5 2.58097 1.73705 2.15901 2.15901C1.73705 2.58097 1.5 3.15326 1.5 3.75V6.75C1.5 6.94891 1.42098 7.13968 1.28033 7.28033C1.13968 7.42098 0.948912 7.5 0.75 7.5C0.551088 7.5 0.360322 7.42098 0.21967 7.28033C0.0790178 7.13968 0 6.94891 0 6.75V3.75C0 2.75544 0.395088 1.80161 1.09835 1.09835C1.80161 0.395088 2.75544 0 3.75 0H6.75C6.94891 0 7.13968 0.0790178 7.28033 0.21967C7.42098 0.360322 7.5 0.551088 7.5 0.75C7.5 0.948912 7.42098 1.13968 7.28033 1.28033C7.13968 1.42098 6.94891 1.5 6.75 1.5H3.75ZM3.75 22.5C3.15326 22.5 2.58097 22.2629 2.15901 21.841C1.73705 21.419 1.5 20.8467 1.5 20.25V17.25C1.5 17.0511 1.42098 16.8603 1.28033 16.7197C1.13968 16.579 0.948912 16.5 0.75 16.5C0.551088 16.5 0.360322 16.579 0.21967 16.7197C0.0790178 16.8603 0 17.0511 0 17.25V20.25C0 21.2446 0.395088 22.1984 1.09835 22.9016C1.80161 23.6049 2.75544 24 3.75 24H6.75C6.94891 24 7.13968 23.921 7.28033 23.7803C7.42098 23.6397 7.5 23.4489 7.5 23.25C7.5 23.0511 7.42098 22.8603 7.28033 22.7197C7.13968 22.579 6.94891 22.5 6.75 22.5H3.75ZM22.5 3.75C22.5 3.15326 22.2629 2.58097 21.841 2.15901C21.419 1.73705 20.8467 1.5 20.25 1.5H17.25C17.0511 1.5 16.8603 1.42098 16.7197 1.28033C16.579 1.13968 16.5 0.948912 16.5 0.75C16.5 0.551088 16.579 0.360322 16.7197 0.21967C16.8603 0.0790178 17.0511 0 17.25 0H20.25C21.2446 0 22.1984 0.395088 22.9016 1.09835C23.6049 1.80161 24 2.75544 24 3.75V6.75C24 6.94891 23.921 7.13968 23.7803 7.28033C23.6397 7.42098 23.4489 7.5 23.25 7.5C23.0511 7.5 22.8603 7.42098 22.7197 7.28033C22.579 7.13968 22.5 6.94891 22.5 6.75V3.75ZM20.25 22.5C20.8467 22.5 21.419 22.2629 21.841 21.841C22.2629 21.419 22.5 20.8467 22.5 20.25V17.25C22.5 17.0511 22.579 16.8603 22.7197 16.7197C22.8603 16.579 23.0511 16.5 23.25 16.5C23.4489 16.5 23.6397 16.579 23.7803 16.7197C23.921 16.8603 24 17.0511 24 17.25V20.25C24 21.2446 23.6049 22.1984 22.9016 22.9016C22.1984 23.6049 21.2446 24 20.25 24H17.25C17.0511 24 16.8603 23.921 16.7197 23.7803C16.579 23.6397 16.5 23.4489 16.5 23.25C16.5 23.0511 16.579 22.8603 16.7197 22.7197C16.8603 22.579 17.0511 22.5 17.25 22.5H20.25ZM6 12C6 11.8011 6.07902 11.6103 6.21967 11.4697C6.36032 11.329 6.55109 11.25 6.75 11.25H17.25C17.4489 11.25 17.6397 11.329 17.7803 11.4697C17.921 11.6103 18 11.8011 18 12C18 12.1989 17.921 12.3897 17.7803 12.5303C17.6397 12.671 17.4489 12.75 17.25 12.75H6.75C6.55109 12.75 6.36032 12.671 6.21967 12.5303C6.07902 12.3897 6 12.1989 6 12Z" fill="#ED9A45"/>
</svg>
