<svg width="13" height="13" viewBox="0 0 13 13" fill="none" xmlns="http://www.w3.org/2000/svg">
<path d="M6.21822 0.00489998L6.30012 0C6.47158 2.26174e-05 6.63706 0.0629693 6.76518 0.176901C6.89331 0.290832 6.97516 0.447824 6.99522 0.6181L7.00012 0.7V5.6H11.9001C12.0716 5.60002 12.2371 5.66297 12.3652 5.7769C12.4933 5.89083 12.5752 6.04783 12.5952 6.2181L12.6001 6.3C12.6001 6.47145 12.5372 6.63694 12.4232 6.76506C12.3093 6.89319 12.1523 6.97504 11.982 6.9951L11.9001 7H7.00012V11.9C7.0001 12.0715 6.93715 12.2369 6.82322 12.3651C6.70929 12.4932 6.5523 12.575 6.38202 12.5951L6.30012 12.6C6.12867 12.6 5.96319 12.537 5.83506 12.4231C5.70694 12.3092 5.62508 12.1522 5.60502 11.9819L5.60012 11.9V7H0.700122C0.528669 6.99998 0.363186 6.93703 0.235062 6.8231C0.106937 6.70917 0.0250821 6.55218 0.00502205 6.3819L0.00012207 6.3C0.000144688 6.12855 0.0630914 5.96306 0.177023 5.83494C0.290954 5.70682 0.447946 5.62496 0.618222 5.6049L0.700122 5.6H5.60012V0.7C5.60015 0.528547 5.66309 0.363064 5.77702 0.23494C5.89095 0.106815 6.04795 0.02496 6.21822 0.00489998Z" fill="#FFFEFC"/>
</svg>
