<svg width="27" height="28" viewBox="0 0 27 28" fill="none" xmlns="http://www.w3.org/2000/svg">
<path d="M10.2724 27.6283C11.3077 27.8754 12.3676 28 13.4316 28C14.4934 27.9989 15.5513 27.8734 16.5839 27.6262C16.8553 27.5608 17.1001 27.4134 17.2847 27.2039C17.4693 26.9945 17.5849 26.7332 17.6157 26.4557L17.8524 24.3059C17.8923 23.9215 18.0682 23.5639 18.3484 23.2976C18.6285 23.0313 18.9946 22.8738 19.3805 22.8533C19.6374 22.8421 19.893 22.8904 20.1282 22.9933L22.0932 23.8551C22.264 23.9319 22.449 23.9722 22.6364 23.9734C22.8237 23.9746 23.0092 23.9367 23.181 23.8621C23.3539 23.7886 23.5086 23.6794 23.636 23.5415C25.0809 21.9841 26.1596 20.1236 26.7932 18.0959C26.8762 17.8269 26.8736 17.5388 26.7858 17.2713C26.698 17.0039 26.5294 16.7703 26.3032 16.6027L24.5573 15.3147C24.3493 15.1636 24.1801 14.9655 24.0634 14.7365C23.9467 14.5076 23.8859 14.2542 23.8859 13.9972C23.8859 13.7402 23.9467 13.4868 24.0634 13.2579C24.1801 13.0289 24.3493 12.8308 24.5573 12.6797L26.2976 11.3945C26.5244 11.2266 26.6934 10.9924 26.7812 10.7243C26.869 10.4561 26.8713 10.1673 26.7876 9.89779C26.1538 7.86984 25.0738 6.00959 23.6269 4.45362C23.4352 4.24873 23.1847 4.10839 22.9098 4.05196C22.635 3.99554 22.3494 4.02581 22.0925 4.13861L20.1282 5.00385C19.9252 5.09555 19.704 5.14386 19.4799 5.14386C19.0767 5.14306 18.688 4.99345 18.3883 4.72371C18.0886 4.45397 17.899 4.08309 17.8559 3.68218L17.6178 1.54008C17.5874 1.25893 17.4698 0.994335 17.2815 0.783332C17.0932 0.572329 16.8437 0.425473 16.5678 0.363318C15.5404 0.133959 14.4919 0.0121965 13.4393 0C12.3795 0.0122317 11.3238 0.134222 10.2892 0.364018C10.0136 0.425819 9.76426 0.572202 9.57599 0.782693C9.38771 0.993183 9.26993 1.25726 9.23913 1.53798L9.00111 3.68148C8.95621 4.08303 8.76478 4.45392 8.46349 4.72314C8.15601 4.98434 7.76845 5.13255 7.36513 5.14316C7.14269 5.14301 6.92268 5.09677 6.719 5.00735L4.7589 4.14211C4.50114 4.0283 4.21433 3.99761 3.93832 4.05432C3.66232 4.11103 3.41084 4.25231 3.21883 4.45852C1.77399 6.01484 0.695309 7.87444 0.061667 9.9013C-0.0220389 10.1707 -0.0198355 10.4594 0.0679715 10.7275C0.155779 10.9955 0.324836 11.2296 0.551691 11.3973L2.29338 12.6825C2.60451 12.9125 2.82439 13.245 2.91418 13.6213C3.00397 13.9976 2.9579 14.3936 2.7841 14.7392C2.66853 14.9684 2.50067 15.1672 2.29408 15.3196L0.550991 16.6069C0.324333 16.7744 0.155394 17.0083 0.0675917 17.2761C-0.0202105 17.5439 -0.0225257 17.8323 0.060967 18.1015C0.693487 20.1303 1.77226 21.9917 3.21812 23.5492C3.40913 23.7553 3.65969 23.8967 3.93487 23.9537C4.21005 24.0106 4.49616 23.9803 4.7533 23.867L6.726 23.0011C6.92971 22.9114 7.14952 22.8652 7.37213 22.8652H7.37773C7.77944 22.8658 8.16693 23.014 8.46641 23.2817C8.76589 23.5495 8.95646 23.918 9.00181 24.3171L9.23843 26.4571C9.26924 26.735 9.38509 26.9966 9.57014 27.2063C9.75519 27.4159 10.0004 27.5633 10.2724 27.6283ZM13.4267 18.3752C12.2664 18.3752 11.1535 17.9143 10.333 17.0937C9.51248 16.2732 9.05152 15.1604 9.05152 14C9.05152 12.8396 9.51248 11.7268 10.333 10.9063C11.1535 10.0857 12.2664 9.62478 13.4267 9.62478C14.5871 9.62478 15.7 10.0857 16.5205 10.9063C17.341 11.7268 17.802 12.8396 17.802 14C17.802 15.1604 17.341 16.2732 16.5205 17.0937C15.7 17.9143 14.5871 18.3752 13.4267 18.3752Z" fill="#ED9A45"/>
</svg>
