<svg width="17" height="17" viewBox="0 0 17 17" fill="none" xmlns="http://www.w3.org/2000/svg">
<g clip-path="url(#clip0_143_22)">
<path fill-rule="evenodd" clip-rule="evenodd" d="M11.36 11.1547C11.4528 11.0618 11.5631 10.988 11.6845 10.9377C11.8059 10.8874 11.9361 10.8615 12.0675 10.8615C12.1989 10.8615 12.329 10.8874 12.4504 10.9377C12.5718 10.988 12.6821 11.0618 12.775 11.1547L16.625 15.0047C16.8126 15.1922 16.9181 15.4466 16.9182 15.7119C16.9183 15.9772 16.813 16.2316 16.6255 16.4192C16.438 16.6069 16.1836 16.7123 15.9183 16.7124C15.6531 16.7125 15.3986 16.6072 15.211 16.4197L11.361 12.5697C11.268 12.4769 11.1942 12.3666 11.1439 12.2452C11.0936 12.1238 11.0677 11.9937 11.0677 11.8622C11.0677 11.7308 11.0936 11.6007 11.1439 11.4793C11.1942 11.3579 11.268 11.2476 11.361 11.1547H11.36Z" fill="#968F86"/>
<path fill-rule="evenodd" clip-rule="evenodd" d="M7.41797 12.7127C8.14024 12.7127 8.85544 12.5704 9.52273 12.294C10.19 12.0176 10.7963 11.6125 11.3071 11.1018C11.8178 10.5911 12.2229 9.98476 12.4993 9.31747C12.7757 8.65018 12.918 7.93498 12.918 7.21271C12.918 6.49044 12.7757 5.77524 12.4993 5.10795C12.2229 4.44066 11.8178 3.83434 11.3071 3.32362C10.7963 2.8129 10.19 2.40777 9.52273 2.13137C8.85544 1.85497 8.14024 1.71271 7.41797 1.71271C5.95928 1.71271 4.56033 2.29217 3.52888 3.32362C2.49743 4.35507 1.91797 5.75402 1.91797 7.21271C1.91797 8.6714 2.49743 10.0703 3.52888 11.1018C4.56033 12.1332 5.95928 12.7127 7.41797 12.7127ZM13.918 7.21271C13.918 8.93662 13.2332 10.5899 12.0142 11.8089C10.7952 13.0279 9.14188 13.7127 7.41797 13.7127C5.69406 13.7127 4.04076 13.0279 2.82177 11.8089C1.60279 10.5899 0.917969 8.93662 0.917969 7.21271C0.917969 5.4888 1.60279 3.8355 2.82177 2.61651C4.04076 1.39753 5.69406 0.712708 7.41797 0.712708C9.14188 0.712708 10.7952 1.39753 12.0142 2.61651C13.2332 3.8355 13.918 5.4888 13.918 7.21271Z" fill="#968F86"/>
</g>
<defs>
<clipPath id="clip0_143_22">
<rect width="16" height="16" fill="white" transform="translate(0.917969 0.712708)"/>
</clipPath>
</defs>
</svg>
